%TF.GenerationSoftware,KiCad,Pcbnew,(5.1.6-0-10_14)*%
%TF.CreationDate,2020-08-16T17:22:38+02:00*%
%TF.ProjectId,netzteil,6e65747a-7465-4696-9c2e-6b696361645f,1.01*%
%TF.SameCoordinates,Original*%
%TF.FileFunction,Soldermask,Top*%
%TF.FilePolarity,Negative*%
%FSLAX46Y46*%
G04 Gerber Fmt 4.6, Leading zero omitted, Abs format (unit mm)*
G04 Created by KiCad (PCBNEW (5.1.6-0-10_14)) date 2020-08-16 17:22:38*
%MOMM*%
%LPD*%
G01*
G04 APERTURE LIST*
%ADD10O,2.305000X2.400000*%
%ADD11R,2.305000X2.400000*%
%ADD12C,6.400000*%
%ADD13C,2.800000*%
%ADD14R,2.800000X2.800000*%
%ADD15C,1.924000*%
%ADD16R,2.200000X2.900000*%
%ADD17C,2.400000*%
%ADD18R,1.200000X1.300000*%
%ADD19R,2.400000X2.400000*%
%ADD20R,3.000000X3.000000*%
%ADD21O,3.000000X3.000000*%
%ADD22O,3.600000X3.600000*%
%ADD23R,3.600000X3.600000*%
%ADD24C,3.600000*%
%ADD25C,4.400000*%
%ADD26R,2.100000X2.100000*%
%ADD27O,2.100000X2.100000*%
%ADD28C,3.000000*%
%ADD29C,3.400000*%
%ADD30R,3.400000X3.400000*%
%ADD31R,1.300000X1.200000*%
%ADD32C,2.000200*%
G04 APERTURE END LIST*
%TO.C,R10*%
G36*
G01*
X198629824Y-79437500D02*
X197120176Y-79437500D01*
G75*
G02*
X196800000Y-79117324I0J320176D01*
G01*
X196800000Y-77932676D01*
G75*
G02*
X197120176Y-77612500I320176J0D01*
G01*
X198629824Y-77612500D01*
G75*
G02*
X198950000Y-77932676I0J-320176D01*
G01*
X198950000Y-79117324D01*
G75*
G02*
X198629824Y-79437500I-320176J0D01*
G01*
G37*
G36*
G01*
X198629824Y-82412500D02*
X197120176Y-82412500D01*
G75*
G02*
X196800000Y-82092324I0J320176D01*
G01*
X196800000Y-80907676D01*
G75*
G02*
X197120176Y-80587500I320176J0D01*
G01*
X198629824Y-80587500D01*
G75*
G02*
X198950000Y-80907676I0J-320176D01*
G01*
X198950000Y-82092324D01*
G75*
G02*
X198629824Y-82412500I-320176J0D01*
G01*
G37*
%TD*%
D10*
%TO.C,Q7*%
X187545000Y-119270000D03*
X190085000Y-119270000D03*
D11*
X192625000Y-119270000D03*
%TD*%
%TO.C,Q8*%
X191565000Y-85730000D03*
D10*
X189025000Y-85730000D03*
X186485000Y-85730000D03*
%TD*%
%TO.C,R9*%
G36*
G01*
X199264824Y-116702500D02*
X197755176Y-116702500D01*
G75*
G02*
X197435000Y-116382324I0J320176D01*
G01*
X197435000Y-115197676D01*
G75*
G02*
X197755176Y-114877500I320176J0D01*
G01*
X199264824Y-114877500D01*
G75*
G02*
X199585000Y-115197676I0J-320176D01*
G01*
X199585000Y-116382324D01*
G75*
G02*
X199264824Y-116702500I-320176J0D01*
G01*
G37*
G36*
G01*
X199264824Y-113727500D02*
X197755176Y-113727500D01*
G75*
G02*
X197435000Y-113407324I0J320176D01*
G01*
X197435000Y-112222676D01*
G75*
G02*
X197755176Y-111902500I320176J0D01*
G01*
X199264824Y-111902500D01*
G75*
G02*
X199585000Y-112222676I0J-320176D01*
G01*
X199585000Y-113407324D01*
G75*
G02*
X199264824Y-113727500I-320176J0D01*
G01*
G37*
%TD*%
%TO.C,C15*%
G36*
G01*
X195589824Y-113757500D02*
X194080176Y-113757500D01*
G75*
G02*
X193760000Y-113437324I0J320176D01*
G01*
X193760000Y-112252676D01*
G75*
G02*
X194080176Y-111932500I320176J0D01*
G01*
X195589824Y-111932500D01*
G75*
G02*
X195910000Y-112252676I0J-320176D01*
G01*
X195910000Y-113437324D01*
G75*
G02*
X195589824Y-113757500I-320176J0D01*
G01*
G37*
G36*
G01*
X195589824Y-116732500D02*
X194080176Y-116732500D01*
G75*
G02*
X193760000Y-116412324I0J320176D01*
G01*
X193760000Y-115227676D01*
G75*
G02*
X194080176Y-114907500I320176J0D01*
G01*
X195589824Y-114907500D01*
G75*
G02*
X195910000Y-115227676I0J-320176D01*
G01*
X195910000Y-116412324D01*
G75*
G02*
X195589824Y-116732500I-320176J0D01*
G01*
G37*
%TD*%
%TO.C,C16*%
G36*
G01*
X193310176Y-80587500D02*
X194819824Y-80587500D01*
G75*
G02*
X195140000Y-80907676I0J-320176D01*
G01*
X195140000Y-82092324D01*
G75*
G02*
X194819824Y-82412500I-320176J0D01*
G01*
X193310176Y-82412500D01*
G75*
G02*
X192990000Y-82092324I0J320176D01*
G01*
X192990000Y-80907676D01*
G75*
G02*
X193310176Y-80587500I320176J0D01*
G01*
G37*
G36*
G01*
X193310176Y-77612500D02*
X194819824Y-77612500D01*
G75*
G02*
X195140000Y-77932676I0J-320176D01*
G01*
X195140000Y-79117324D01*
G75*
G02*
X194819824Y-79437500I-320176J0D01*
G01*
X193310176Y-79437500D01*
G75*
G02*
X192990000Y-79117324I0J320176D01*
G01*
X192990000Y-77932676D01*
G75*
G02*
X193310176Y-77612500I320176J0D01*
G01*
G37*
%TD*%
%TO.C,C17*%
G36*
G01*
X191644824Y-116682500D02*
X190135176Y-116682500D01*
G75*
G02*
X189815000Y-116362324I0J320176D01*
G01*
X189815000Y-115177676D01*
G75*
G02*
X190135176Y-114857500I320176J0D01*
G01*
X191644824Y-114857500D01*
G75*
G02*
X191965000Y-115177676I0J-320176D01*
G01*
X191965000Y-116362324D01*
G75*
G02*
X191644824Y-116682500I-320176J0D01*
G01*
G37*
G36*
G01*
X191644824Y-113707500D02*
X190135176Y-113707500D01*
G75*
G02*
X189815000Y-113387324I0J320176D01*
G01*
X189815000Y-112202676D01*
G75*
G02*
X190135176Y-111882500I320176J0D01*
G01*
X191644824Y-111882500D01*
G75*
G02*
X191965000Y-112202676I0J-320176D01*
G01*
X191965000Y-113387324D01*
G75*
G02*
X191644824Y-113707500I-320176J0D01*
G01*
G37*
%TD*%
%TO.C,C18*%
G36*
G01*
X189500176Y-77612500D02*
X191009824Y-77612500D01*
G75*
G02*
X191330000Y-77932676I0J-320176D01*
G01*
X191330000Y-79117324D01*
G75*
G02*
X191009824Y-79437500I-320176J0D01*
G01*
X189500176Y-79437500D01*
G75*
G02*
X189180000Y-79117324I0J320176D01*
G01*
X189180000Y-77932676D01*
G75*
G02*
X189500176Y-77612500I320176J0D01*
G01*
G37*
G36*
G01*
X189500176Y-80587500D02*
X191009824Y-80587500D01*
G75*
G02*
X191330000Y-80907676I0J-320176D01*
G01*
X191330000Y-82092324D01*
G75*
G02*
X191009824Y-82412500I-320176J0D01*
G01*
X189500176Y-82412500D01*
G75*
G02*
X189180000Y-82092324I0J320176D01*
G01*
X189180000Y-80907676D01*
G75*
G02*
X189500176Y-80587500I320176J0D01*
G01*
G37*
%TD*%
D12*
%TO.C,HS1*%
X202785000Y-123670000D03*
X177385000Y-123670000D03*
%TD*%
%TO.C,HS2*%
X176265000Y-90030000D03*
X201665000Y-90030000D03*
%TD*%
D13*
%TO.C,C13*%
X190255000Y-136665000D03*
D14*
X190255000Y-131665000D03*
%TD*%
%TO.C,C14*%
X189620000Y-101105000D03*
D13*
X189620000Y-96105000D03*
%TD*%
%TO.C,R11*%
G36*
G01*
X200295176Y-134762500D02*
X201804824Y-134762500D01*
G75*
G02*
X202125000Y-135082676I0J-320176D01*
G01*
X202125000Y-136267324D01*
G75*
G02*
X201804824Y-136587500I-320176J0D01*
G01*
X200295176Y-136587500D01*
G75*
G02*
X199975000Y-136267324I0J320176D01*
G01*
X199975000Y-135082676D01*
G75*
G02*
X200295176Y-134762500I320176J0D01*
G01*
G37*
G36*
G01*
X200295176Y-137737500D02*
X201804824Y-137737500D01*
G75*
G02*
X202125000Y-138057676I0J-320176D01*
G01*
X202125000Y-139242324D01*
G75*
G02*
X201804824Y-139562500I-320176J0D01*
G01*
X200295176Y-139562500D01*
G75*
G02*
X199975000Y-139242324I0J320176D01*
G01*
X199975000Y-138057676D01*
G75*
G02*
X200295176Y-137737500I320176J0D01*
G01*
G37*
%TD*%
%TO.C,R12*%
G36*
G01*
X201169824Y-100192500D02*
X199660176Y-100192500D01*
G75*
G02*
X199340000Y-99872324I0J320176D01*
G01*
X199340000Y-98687676D01*
G75*
G02*
X199660176Y-98367500I320176J0D01*
G01*
X201169824Y-98367500D01*
G75*
G02*
X201490000Y-98687676I0J-320176D01*
G01*
X201490000Y-99872324D01*
G75*
G02*
X201169824Y-100192500I-320176J0D01*
G01*
G37*
G36*
G01*
X201169824Y-103167500D02*
X199660176Y-103167500D01*
G75*
G02*
X199340000Y-102847324I0J320176D01*
G01*
X199340000Y-101662676D01*
G75*
G02*
X199660176Y-101342500I320176J0D01*
G01*
X201169824Y-101342500D01*
G75*
G02*
X201490000Y-101662676I0J-320176D01*
G01*
X201490000Y-102847324D01*
G75*
G02*
X201169824Y-103167500I-320176J0D01*
G01*
G37*
%TD*%
%TO.C,C26*%
G36*
G01*
X145945000Y-102281956D02*
X145945000Y-103408044D01*
G75*
G02*
X145608044Y-103745000I-336956J0D01*
G01*
X144731956Y-103745000D01*
G75*
G02*
X144395000Y-103408044I0J336956D01*
G01*
X144395000Y-102281956D01*
G75*
G02*
X144731956Y-101945000I336956J0D01*
G01*
X145608044Y-101945000D01*
G75*
G02*
X145945000Y-102281956I0J-336956D01*
G01*
G37*
G36*
G01*
X147995000Y-102281956D02*
X147995000Y-103408044D01*
G75*
G02*
X147658044Y-103745000I-336956J0D01*
G01*
X146781956Y-103745000D01*
G75*
G02*
X146445000Y-103408044I0J336956D01*
G01*
X146445000Y-102281956D01*
G75*
G02*
X146781956Y-101945000I336956J0D01*
G01*
X147658044Y-101945000D01*
G75*
G02*
X147995000Y-102281956I0J-336956D01*
G01*
G37*
%TD*%
%TO.C,R14*%
G36*
G01*
X143167324Y-103585000D02*
X141657676Y-103585000D01*
G75*
G02*
X141337500Y-103264824I0J320176D01*
G01*
X141337500Y-102080176D01*
G75*
G02*
X141657676Y-101760000I320176J0D01*
G01*
X143167324Y-101760000D01*
G75*
G02*
X143487500Y-102080176I0J-320176D01*
G01*
X143487500Y-103264824D01*
G75*
G02*
X143167324Y-103585000I-320176J0D01*
G01*
G37*
G36*
G01*
X143167324Y-100610000D02*
X141657676Y-100610000D01*
G75*
G02*
X141337500Y-100289824I0J320176D01*
G01*
X141337500Y-99105176D01*
G75*
G02*
X141657676Y-98785000I320176J0D01*
G01*
X143167324Y-98785000D01*
G75*
G02*
X143487500Y-99105176I0J-320176D01*
G01*
X143487500Y-100289824D01*
G75*
G02*
X143167324Y-100610000I-320176J0D01*
G01*
G37*
%TD*%
D15*
%TO.C,RV2*%
X139230000Y-108775000D03*
X142230000Y-108775000D03*
X145230000Y-108775000D03*
%TD*%
D16*
%TO.C,D8*%
X146440000Y-97565000D03*
X146440000Y-93565000D03*
%TD*%
%TO.C,D10*%
X139515000Y-93565000D03*
X139515000Y-97565000D03*
%TD*%
D17*
%TO.C,TP4*%
X116595000Y-63085000D03*
%TD*%
D18*
%TO.C,Q3*%
X154065000Y-59275000D03*
X155965000Y-59275000D03*
X155015000Y-57275000D03*
%TD*%
%TO.C,R1*%
G36*
G01*
X82185176Y-59632500D02*
X83694824Y-59632500D01*
G75*
G02*
X84015000Y-59952676I0J-320176D01*
G01*
X84015000Y-61137324D01*
G75*
G02*
X83694824Y-61457500I-320176J0D01*
G01*
X82185176Y-61457500D01*
G75*
G02*
X81865000Y-61137324I0J320176D01*
G01*
X81865000Y-59952676D01*
G75*
G02*
X82185176Y-59632500I320176J0D01*
G01*
G37*
G36*
G01*
X82185176Y-62607500D02*
X83694824Y-62607500D01*
G75*
G02*
X84015000Y-62927676I0J-320176D01*
G01*
X84015000Y-64112324D01*
G75*
G02*
X83694824Y-64432500I-320176J0D01*
G01*
X82185176Y-64432500D01*
G75*
G02*
X81865000Y-64112324I0J320176D01*
G01*
X81865000Y-62927676D01*
G75*
G02*
X82185176Y-62607500I320176J0D01*
G01*
G37*
%TD*%
%TO.C,C5*%
G36*
G01*
X121555176Y-57527500D02*
X123064824Y-57527500D01*
G75*
G02*
X123385000Y-57847676I0J-320176D01*
G01*
X123385000Y-59032324D01*
G75*
G02*
X123064824Y-59352500I-320176J0D01*
G01*
X121555176Y-59352500D01*
G75*
G02*
X121235000Y-59032324I0J320176D01*
G01*
X121235000Y-57847676D01*
G75*
G02*
X121555176Y-57527500I320176J0D01*
G01*
G37*
G36*
G01*
X121555176Y-54552500D02*
X123064824Y-54552500D01*
G75*
G02*
X123385000Y-54872676I0J-320176D01*
G01*
X123385000Y-56057324D01*
G75*
G02*
X123064824Y-56377500I-320176J0D01*
G01*
X121555176Y-56377500D01*
G75*
G02*
X121235000Y-56057324I0J320176D01*
G01*
X121235000Y-54872676D01*
G75*
G02*
X121555176Y-54552500I320176J0D01*
G01*
G37*
%TD*%
D17*
%TO.C,C19*%
X110230000Y-120140000D03*
D19*
X115230000Y-120140000D03*
%TD*%
%TO.C,C20*%
X112785000Y-111345000D03*
D17*
X112785000Y-106345000D03*
%TD*%
%TO.C,C21*%
G36*
G01*
X116285176Y-138172500D02*
X117794824Y-138172500D01*
G75*
G02*
X118115000Y-138492676I0J-320176D01*
G01*
X118115000Y-139677324D01*
G75*
G02*
X117794824Y-139997500I-320176J0D01*
G01*
X116285176Y-139997500D01*
G75*
G02*
X115965000Y-139677324I0J320176D01*
G01*
X115965000Y-138492676D01*
G75*
G02*
X116285176Y-138172500I320176J0D01*
G01*
G37*
G36*
G01*
X116285176Y-135197500D02*
X117794824Y-135197500D01*
G75*
G02*
X118115000Y-135517676I0J-320176D01*
G01*
X118115000Y-136702324D01*
G75*
G02*
X117794824Y-137022500I-320176J0D01*
G01*
X116285176Y-137022500D01*
G75*
G02*
X115965000Y-136702324I0J320176D01*
G01*
X115965000Y-135517676D01*
G75*
G02*
X116285176Y-135197500I320176J0D01*
G01*
G37*
%TD*%
%TO.C,C22*%
G36*
G01*
X113855176Y-90312500D02*
X115364824Y-90312500D01*
G75*
G02*
X115685000Y-90632676I0J-320176D01*
G01*
X115685000Y-91817324D01*
G75*
G02*
X115364824Y-92137500I-320176J0D01*
G01*
X113855176Y-92137500D01*
G75*
G02*
X113535000Y-91817324I0J320176D01*
G01*
X113535000Y-90632676D01*
G75*
G02*
X113855176Y-90312500I320176J0D01*
G01*
G37*
G36*
G01*
X113855176Y-93287500D02*
X115364824Y-93287500D01*
G75*
G02*
X115685000Y-93607676I0J-320176D01*
G01*
X115685000Y-94792324D01*
G75*
G02*
X115364824Y-95112500I-320176J0D01*
G01*
X113855176Y-95112500D01*
G75*
G02*
X113535000Y-94792324I0J320176D01*
G01*
X113535000Y-93607676D01*
G75*
G02*
X113855176Y-93287500I320176J0D01*
G01*
G37*
%TD*%
%TO.C,C23*%
G36*
G01*
X113300176Y-135197500D02*
X114809824Y-135197500D01*
G75*
G02*
X115130000Y-135517676I0J-320176D01*
G01*
X115130000Y-136702324D01*
G75*
G02*
X114809824Y-137022500I-320176J0D01*
G01*
X113300176Y-137022500D01*
G75*
G02*
X112980000Y-136702324I0J320176D01*
G01*
X112980000Y-135517676D01*
G75*
G02*
X113300176Y-135197500I320176J0D01*
G01*
G37*
G36*
G01*
X113300176Y-138172500D02*
X114809824Y-138172500D01*
G75*
G02*
X115130000Y-138492676I0J-320176D01*
G01*
X115130000Y-139677324D01*
G75*
G02*
X114809824Y-139997500I-320176J0D01*
G01*
X113300176Y-139997500D01*
G75*
G02*
X112980000Y-139677324I0J320176D01*
G01*
X112980000Y-138492676D01*
G75*
G02*
X113300176Y-138172500I320176J0D01*
G01*
G37*
%TD*%
%TO.C,C24*%
G36*
G01*
X110855176Y-93287500D02*
X112364824Y-93287500D01*
G75*
G02*
X112685000Y-93607676I0J-320176D01*
G01*
X112685000Y-94792324D01*
G75*
G02*
X112364824Y-95112500I-320176J0D01*
G01*
X110855176Y-95112500D01*
G75*
G02*
X110535000Y-94792324I0J320176D01*
G01*
X110535000Y-93607676D01*
G75*
G02*
X110855176Y-93287500I320176J0D01*
G01*
G37*
G36*
G01*
X110855176Y-90312500D02*
X112364824Y-90312500D01*
G75*
G02*
X112685000Y-90632676I0J-320176D01*
G01*
X112685000Y-91817324D01*
G75*
G02*
X112364824Y-92137500I-320176J0D01*
G01*
X110855176Y-92137500D01*
G75*
G02*
X110535000Y-91817324I0J320176D01*
G01*
X110535000Y-90632676D01*
G75*
G02*
X110855176Y-90312500I320176J0D01*
G01*
G37*
%TD*%
%TO.C,C25*%
G36*
G01*
X143370000Y-131838044D02*
X143370000Y-130711956D01*
G75*
G02*
X143706956Y-130375000I336956J0D01*
G01*
X144583044Y-130375000D01*
G75*
G02*
X144920000Y-130711956I0J-336956D01*
G01*
X144920000Y-131838044D01*
G75*
G02*
X144583044Y-132175000I-336956J0D01*
G01*
X143706956Y-132175000D01*
G75*
G02*
X143370000Y-131838044I0J336956D01*
G01*
G37*
G36*
G01*
X145420000Y-131838044D02*
X145420000Y-130711956D01*
G75*
G02*
X145756956Y-130375000I336956J0D01*
G01*
X146633044Y-130375000D01*
G75*
G02*
X146970000Y-130711956I0J-336956D01*
G01*
X146970000Y-131838044D01*
G75*
G02*
X146633044Y-132175000I-336956J0D01*
G01*
X145756956Y-132175000D01*
G75*
G02*
X145420000Y-131838044I0J336956D01*
G01*
G37*
%TD*%
D13*
%TO.C,C27*%
X75955000Y-127775000D03*
D14*
X75955000Y-122775000D03*
%TD*%
%TO.C,C28*%
X76230000Y-96820000D03*
D13*
X76230000Y-101820000D03*
%TD*%
%TO.C,C29*%
G36*
G01*
X79010176Y-114242500D02*
X80519824Y-114242500D01*
G75*
G02*
X80840000Y-114562676I0J-320176D01*
G01*
X80840000Y-115747324D01*
G75*
G02*
X80519824Y-116067500I-320176J0D01*
G01*
X79010176Y-116067500D01*
G75*
G02*
X78690000Y-115747324I0J320176D01*
G01*
X78690000Y-114562676D01*
G75*
G02*
X79010176Y-114242500I320176J0D01*
G01*
G37*
G36*
G01*
X79010176Y-117217500D02*
X80519824Y-117217500D01*
G75*
G02*
X80840000Y-117537676I0J-320176D01*
G01*
X80840000Y-118722324D01*
G75*
G02*
X80519824Y-119042500I-320176J0D01*
G01*
X79010176Y-119042500D01*
G75*
G02*
X78690000Y-118722324I0J320176D01*
G01*
X78690000Y-117537676D01*
G75*
G02*
X79010176Y-117217500I320176J0D01*
G01*
G37*
%TD*%
%TO.C,C30*%
G36*
G01*
X79010176Y-105552500D02*
X80519824Y-105552500D01*
G75*
G02*
X80840000Y-105872676I0J-320176D01*
G01*
X80840000Y-107057324D01*
G75*
G02*
X80519824Y-107377500I-320176J0D01*
G01*
X79010176Y-107377500D01*
G75*
G02*
X78690000Y-107057324I0J320176D01*
G01*
X78690000Y-105872676D01*
G75*
G02*
X79010176Y-105552500I320176J0D01*
G01*
G37*
G36*
G01*
X79010176Y-108527500D02*
X80519824Y-108527500D01*
G75*
G02*
X80840000Y-108847676I0J-320176D01*
G01*
X80840000Y-110032324D01*
G75*
G02*
X80519824Y-110352500I-320176J0D01*
G01*
X79010176Y-110352500D01*
G75*
G02*
X78690000Y-110032324I0J320176D01*
G01*
X78690000Y-108847676D01*
G75*
G02*
X79010176Y-108527500I320176J0D01*
G01*
G37*
%TD*%
%TO.C,C31*%
G36*
G01*
X71390176Y-117217500D02*
X72899824Y-117217500D01*
G75*
G02*
X73220000Y-117537676I0J-320176D01*
G01*
X73220000Y-118722324D01*
G75*
G02*
X72899824Y-119042500I-320176J0D01*
G01*
X71390176Y-119042500D01*
G75*
G02*
X71070000Y-118722324I0J320176D01*
G01*
X71070000Y-117537676D01*
G75*
G02*
X71390176Y-117217500I320176J0D01*
G01*
G37*
G36*
G01*
X71390176Y-114242500D02*
X72899824Y-114242500D01*
G75*
G02*
X73220000Y-114562676I0J-320176D01*
G01*
X73220000Y-115747324D01*
G75*
G02*
X72899824Y-116067500I-320176J0D01*
G01*
X71390176Y-116067500D01*
G75*
G02*
X71070000Y-115747324I0J320176D01*
G01*
X71070000Y-114562676D01*
G75*
G02*
X71390176Y-114242500I320176J0D01*
G01*
G37*
%TD*%
%TO.C,C32*%
G36*
G01*
X71390176Y-108527500D02*
X72899824Y-108527500D01*
G75*
G02*
X73220000Y-108847676I0J-320176D01*
G01*
X73220000Y-110032324D01*
G75*
G02*
X72899824Y-110352500I-320176J0D01*
G01*
X71390176Y-110352500D01*
G75*
G02*
X71070000Y-110032324I0J320176D01*
G01*
X71070000Y-108847676D01*
G75*
G02*
X71390176Y-108527500I320176J0D01*
G01*
G37*
G36*
G01*
X71390176Y-105552500D02*
X72899824Y-105552500D01*
G75*
G02*
X73220000Y-105872676I0J-320176D01*
G01*
X73220000Y-107057324D01*
G75*
G02*
X72899824Y-107377500I-320176J0D01*
G01*
X71390176Y-107377500D01*
G75*
G02*
X71070000Y-107057324I0J320176D01*
G01*
X71070000Y-105872676D01*
G75*
G02*
X71390176Y-105552500I320176J0D01*
G01*
G37*
%TD*%
D18*
%TO.C,D1*%
X81040000Y-49750000D03*
X82940000Y-49750000D03*
X81990000Y-47750000D03*
%TD*%
D20*
%TO.C,D3*%
X89290000Y-48480000D03*
D21*
X89290000Y-63720000D03*
%TD*%
D16*
%TO.C,D7*%
X146440000Y-120775000D03*
X146440000Y-124775000D03*
%TD*%
%TO.C,D9*%
X140030000Y-124975000D03*
X140030000Y-120975000D03*
%TD*%
D22*
%TO.C,D11*%
X87230000Y-129760000D03*
D23*
X87230000Y-114520000D03*
%TD*%
%TO.C,D12*%
X87230000Y-94835000D03*
D22*
X87230000Y-110075000D03*
%TD*%
D24*
%TO.C,H1*%
X60080000Y-139920000D03*
%TD*%
%TO.C,H2*%
X60080000Y-51020000D03*
%TD*%
%TO.C,H3*%
X209940000Y-51020000D03*
%TD*%
%TO.C,H4*%
X209940000Y-139920000D03*
%TD*%
D25*
%TO.C,HS3*%
X100230000Y-128640000D03*
X125630000Y-128640000D03*
%TD*%
%TO.C,HS4*%
X100140000Y-101510000D03*
X125540000Y-101510000D03*
%TD*%
D26*
%TO.C,J4*%
X167395000Y-54195000D03*
D27*
X167395000Y-56735000D03*
%TD*%
D28*
%TO.C,L3*%
X127390000Y-52925000D03*
X132390000Y-52925000D03*
%TD*%
D18*
%TO.C,Q5*%
X161045000Y-59275000D03*
X162945000Y-59275000D03*
X161995000Y-57275000D03*
%TD*%
%TO.C,R3*%
G36*
G01*
X80122500Y-55584824D02*
X80122500Y-54075176D01*
G75*
G02*
X80442676Y-53755000I320176J0D01*
G01*
X81627324Y-53755000D01*
G75*
G02*
X81947500Y-54075176I0J-320176D01*
G01*
X81947500Y-55584824D01*
G75*
G02*
X81627324Y-55905000I-320176J0D01*
G01*
X80442676Y-55905000D01*
G75*
G02*
X80122500Y-55584824I0J320176D01*
G01*
G37*
G36*
G01*
X77147500Y-55584824D02*
X77147500Y-54075176D01*
G75*
G02*
X77467676Y-53755000I320176J0D01*
G01*
X78652324Y-53755000D01*
G75*
G02*
X78972500Y-54075176I0J-320176D01*
G01*
X78972500Y-55584824D01*
G75*
G02*
X78652324Y-55905000I-320176J0D01*
G01*
X77467676Y-55905000D01*
G75*
G02*
X77147500Y-55584824I0J320176D01*
G01*
G37*
%TD*%
%TO.C,R5*%
G36*
G01*
X154000000Y-54949824D02*
X154000000Y-53440176D01*
G75*
G02*
X154320176Y-53120000I320176J0D01*
G01*
X155504824Y-53120000D01*
G75*
G02*
X155825000Y-53440176I0J-320176D01*
G01*
X155825000Y-54949824D01*
G75*
G02*
X155504824Y-55270000I-320176J0D01*
G01*
X154320176Y-55270000D01*
G75*
G02*
X154000000Y-54949824I0J320176D01*
G01*
G37*
G36*
G01*
X151025000Y-54949824D02*
X151025000Y-53440176D01*
G75*
G02*
X151345176Y-53120000I320176J0D01*
G01*
X152529824Y-53120000D01*
G75*
G02*
X152850000Y-53440176I0J-320176D01*
G01*
X152850000Y-54949824D01*
G75*
G02*
X152529824Y-55270000I-320176J0D01*
G01*
X151345176Y-55270000D01*
G75*
G02*
X151025000Y-54949824I0J320176D01*
G01*
G37*
%TD*%
%TO.C,R7*%
G36*
G01*
X161540000Y-62330176D02*
X161540000Y-63839824D01*
G75*
G02*
X161219824Y-64160000I-320176J0D01*
G01*
X160035176Y-64160000D01*
G75*
G02*
X159715000Y-63839824I0J320176D01*
G01*
X159715000Y-62330176D01*
G75*
G02*
X160035176Y-62010000I320176J0D01*
G01*
X161219824Y-62010000D01*
G75*
G02*
X161540000Y-62330176I0J-320176D01*
G01*
G37*
G36*
G01*
X158565000Y-62330176D02*
X158565000Y-63839824D01*
G75*
G02*
X158244824Y-64160000I-320176J0D01*
G01*
X157060176Y-64160000D01*
G75*
G02*
X156740000Y-63839824I0J320176D01*
G01*
X156740000Y-62330176D01*
G75*
G02*
X157060176Y-62010000I320176J0D01*
G01*
X158244824Y-62010000D01*
G75*
G02*
X158565000Y-62330176I0J-320176D01*
G01*
G37*
%TD*%
%TO.C,R13*%
G36*
G01*
X140605000Y-131847324D02*
X140605000Y-130337676D01*
G75*
G02*
X140925176Y-130017500I320176J0D01*
G01*
X142109824Y-130017500D01*
G75*
G02*
X142430000Y-130337676I0J-320176D01*
G01*
X142430000Y-131847324D01*
G75*
G02*
X142109824Y-132167500I-320176J0D01*
G01*
X140925176Y-132167500D01*
G75*
G02*
X140605000Y-131847324I0J320176D01*
G01*
G37*
G36*
G01*
X137630000Y-131847324D02*
X137630000Y-130337676D01*
G75*
G02*
X137950176Y-130017500I320176J0D01*
G01*
X139134824Y-130017500D01*
G75*
G02*
X139455000Y-130337676I0J-320176D01*
G01*
X139455000Y-131847324D01*
G75*
G02*
X139134824Y-132167500I-320176J0D01*
G01*
X137950176Y-132167500D01*
G75*
G02*
X137630000Y-131847324I0J320176D01*
G01*
G37*
%TD*%
D15*
%TO.C,RV1*%
X145170000Y-136745000D03*
X142170000Y-136745000D03*
X139170000Y-136745000D03*
%TD*%
D17*
%TO.C,TP1*%
X74685000Y-49115000D03*
%TD*%
%TO.C,TP2*%
X81670000Y-74515000D03*
%TD*%
%TO.C,TP8*%
X181365000Y-61815000D03*
%TD*%
%TO.C,TP7*%
X181365000Y-54830000D03*
%TD*%
%TO.C,TP10*%
X152790000Y-123410000D03*
%TD*%
%TO.C,TP11*%
X152790000Y-99915000D03*
%TD*%
%TO.C,TP12*%
X208670000Y-80230000D03*
%TD*%
%TO.C,TP13*%
X133740000Y-129125000D03*
%TD*%
D10*
%TO.C,U1*%
X115430000Y-133240000D03*
X112890000Y-133240000D03*
D11*
X110350000Y-133240000D03*
%TD*%
%TO.C,U2*%
X115390000Y-96910000D03*
D10*
X112850000Y-96910000D03*
X110310000Y-96910000D03*
%TD*%
%TO.C,C1*%
G36*
G01*
X116475176Y-54552500D02*
X117984824Y-54552500D01*
G75*
G02*
X118305000Y-54872676I0J-320176D01*
G01*
X118305000Y-56057324D01*
G75*
G02*
X117984824Y-56377500I-320176J0D01*
G01*
X116475176Y-56377500D01*
G75*
G02*
X116155000Y-56057324I0J320176D01*
G01*
X116155000Y-54872676D01*
G75*
G02*
X116475176Y-54552500I320176J0D01*
G01*
G37*
G36*
G01*
X116475176Y-57527500D02*
X117984824Y-57527500D01*
G75*
G02*
X118305000Y-57847676I0J-320176D01*
G01*
X118305000Y-59032324D01*
G75*
G02*
X117984824Y-59352500I-320176J0D01*
G01*
X116475176Y-59352500D01*
G75*
G02*
X116155000Y-59032324I0J320176D01*
G01*
X116155000Y-57847676D01*
G75*
G02*
X116475176Y-57527500I320176J0D01*
G01*
G37*
%TD*%
%TO.C,C2*%
G36*
G01*
X111395176Y-74237500D02*
X112904824Y-74237500D01*
G75*
G02*
X113225000Y-74557676I0J-320176D01*
G01*
X113225000Y-75742324D01*
G75*
G02*
X112904824Y-76062500I-320176J0D01*
G01*
X111395176Y-76062500D01*
G75*
G02*
X111075000Y-75742324I0J320176D01*
G01*
X111075000Y-74557676D01*
G75*
G02*
X111395176Y-74237500I320176J0D01*
G01*
G37*
G36*
G01*
X111395176Y-77212500D02*
X112904824Y-77212500D01*
G75*
G02*
X113225000Y-77532676I0J-320176D01*
G01*
X113225000Y-78717324D01*
G75*
G02*
X112904824Y-79037500I-320176J0D01*
G01*
X111395176Y-79037500D01*
G75*
G02*
X111075000Y-78717324I0J320176D01*
G01*
X111075000Y-77532676D01*
G75*
G02*
X111395176Y-77212500I320176J0D01*
G01*
G37*
%TD*%
%TO.C,C3*%
G36*
G01*
X111395176Y-57527500D02*
X112904824Y-57527500D01*
G75*
G02*
X113225000Y-57847676I0J-320176D01*
G01*
X113225000Y-59032324D01*
G75*
G02*
X112904824Y-59352500I-320176J0D01*
G01*
X111395176Y-59352500D01*
G75*
G02*
X111075000Y-59032324I0J320176D01*
G01*
X111075000Y-57847676D01*
G75*
G02*
X111395176Y-57527500I320176J0D01*
G01*
G37*
G36*
G01*
X111395176Y-54552500D02*
X112904824Y-54552500D01*
G75*
G02*
X113225000Y-54872676I0J-320176D01*
G01*
X113225000Y-56057324D01*
G75*
G02*
X112904824Y-56377500I-320176J0D01*
G01*
X111395176Y-56377500D01*
G75*
G02*
X111075000Y-56057324I0J320176D01*
G01*
X111075000Y-54872676D01*
G75*
G02*
X111395176Y-54552500I320176J0D01*
G01*
G37*
%TD*%
%TO.C,C4*%
G36*
G01*
X121555176Y-74237500D02*
X123064824Y-74237500D01*
G75*
G02*
X123385000Y-74557676I0J-320176D01*
G01*
X123385000Y-75742324D01*
G75*
G02*
X123064824Y-76062500I-320176J0D01*
G01*
X121555176Y-76062500D01*
G75*
G02*
X121235000Y-75742324I0J320176D01*
G01*
X121235000Y-74557676D01*
G75*
G02*
X121555176Y-74237500I320176J0D01*
G01*
G37*
G36*
G01*
X121555176Y-77212500D02*
X123064824Y-77212500D01*
G75*
G02*
X123385000Y-77532676I0J-320176D01*
G01*
X123385000Y-78717324D01*
G75*
G02*
X123064824Y-79037500I-320176J0D01*
G01*
X121555176Y-79037500D01*
G75*
G02*
X121235000Y-78717324I0J320176D01*
G01*
X121235000Y-77532676D01*
G75*
G02*
X121555176Y-77212500I320176J0D01*
G01*
G37*
%TD*%
%TO.C,C6*%
G36*
G01*
X116475176Y-74237500D02*
X117984824Y-74237500D01*
G75*
G02*
X118305000Y-74557676I0J-320176D01*
G01*
X118305000Y-75742324D01*
G75*
G02*
X117984824Y-76062500I-320176J0D01*
G01*
X116475176Y-76062500D01*
G75*
G02*
X116155000Y-75742324I0J320176D01*
G01*
X116155000Y-74557676D01*
G75*
G02*
X116475176Y-74237500I320176J0D01*
G01*
G37*
G36*
G01*
X116475176Y-77212500D02*
X117984824Y-77212500D01*
G75*
G02*
X118305000Y-77532676I0J-320176D01*
G01*
X118305000Y-78717324D01*
G75*
G02*
X117984824Y-79037500I-320176J0D01*
G01*
X116475176Y-79037500D01*
G75*
G02*
X116155000Y-78717324I0J320176D01*
G01*
X116155000Y-77532676D01*
G75*
G02*
X116475176Y-77212500I320176J0D01*
G01*
G37*
%TD*%
%TO.C,C7*%
G36*
G01*
X145289824Y-49592500D02*
X143780176Y-49592500D01*
G75*
G02*
X143460000Y-49272324I0J320176D01*
G01*
X143460000Y-48087676D01*
G75*
G02*
X143780176Y-47767500I320176J0D01*
G01*
X145289824Y-47767500D01*
G75*
G02*
X145610000Y-48087676I0J-320176D01*
G01*
X145610000Y-49272324D01*
G75*
G02*
X145289824Y-49592500I-320176J0D01*
G01*
G37*
G36*
G01*
X145289824Y-52567500D02*
X143780176Y-52567500D01*
G75*
G02*
X143460000Y-52247324I0J320176D01*
G01*
X143460000Y-51062676D01*
G75*
G02*
X143780176Y-50742500I320176J0D01*
G01*
X145289824Y-50742500D01*
G75*
G02*
X145610000Y-51062676I0J-320176D01*
G01*
X145610000Y-52247324D01*
G75*
G02*
X145289824Y-52567500I-320176J0D01*
G01*
G37*
%TD*%
%TO.C,C8*%
G36*
G01*
X145289824Y-83682500D02*
X143780176Y-83682500D01*
G75*
G02*
X143460000Y-83362324I0J320176D01*
G01*
X143460000Y-82177676D01*
G75*
G02*
X143780176Y-81857500I320176J0D01*
G01*
X145289824Y-81857500D01*
G75*
G02*
X145610000Y-82177676I0J-320176D01*
G01*
X145610000Y-83362324D01*
G75*
G02*
X145289824Y-83682500I-320176J0D01*
G01*
G37*
G36*
G01*
X145289824Y-86657500D02*
X143780176Y-86657500D01*
G75*
G02*
X143460000Y-86337324I0J320176D01*
G01*
X143460000Y-85152676D01*
G75*
G02*
X143780176Y-84832500I320176J0D01*
G01*
X145289824Y-84832500D01*
G75*
G02*
X145610000Y-85152676I0J-320176D01*
G01*
X145610000Y-86337324D01*
G75*
G02*
X145289824Y-86657500I-320176J0D01*
G01*
G37*
%TD*%
%TO.C,C9*%
G36*
G01*
X137887324Y-52567500D02*
X136377676Y-52567500D01*
G75*
G02*
X136057500Y-52247324I0J320176D01*
G01*
X136057500Y-51062676D01*
G75*
G02*
X136377676Y-50742500I320176J0D01*
G01*
X137887324Y-50742500D01*
G75*
G02*
X138207500Y-51062676I0J-320176D01*
G01*
X138207500Y-52247324D01*
G75*
G02*
X137887324Y-52567500I-320176J0D01*
G01*
G37*
G36*
G01*
X137887324Y-49592500D02*
X136377676Y-49592500D01*
G75*
G02*
X136057500Y-49272324I0J320176D01*
G01*
X136057500Y-48087676D01*
G75*
G02*
X136377676Y-47767500I320176J0D01*
G01*
X137887324Y-47767500D01*
G75*
G02*
X138207500Y-48087676I0J-320176D01*
G01*
X138207500Y-49272324D01*
G75*
G02*
X137887324Y-49592500I-320176J0D01*
G01*
G37*
%TD*%
%TO.C,C10*%
G36*
G01*
X138304824Y-83682500D02*
X136795176Y-83682500D01*
G75*
G02*
X136475000Y-83362324I0J320176D01*
G01*
X136475000Y-82177676D01*
G75*
G02*
X136795176Y-81857500I320176J0D01*
G01*
X138304824Y-81857500D01*
G75*
G02*
X138625000Y-82177676I0J-320176D01*
G01*
X138625000Y-83362324D01*
G75*
G02*
X138304824Y-83682500I-320176J0D01*
G01*
G37*
G36*
G01*
X138304824Y-86657500D02*
X136795176Y-86657500D01*
G75*
G02*
X136475000Y-86337324I0J320176D01*
G01*
X136475000Y-85152676D01*
G75*
G02*
X136795176Y-84832500I320176J0D01*
G01*
X138304824Y-84832500D01*
G75*
G02*
X138625000Y-85152676I0J-320176D01*
G01*
X138625000Y-86337324D01*
G75*
G02*
X138304824Y-86657500I-320176J0D01*
G01*
G37*
%TD*%
%TO.C,C11*%
G36*
G01*
X141479824Y-52567500D02*
X139970176Y-52567500D01*
G75*
G02*
X139650000Y-52247324I0J320176D01*
G01*
X139650000Y-51062676D01*
G75*
G02*
X139970176Y-50742500I320176J0D01*
G01*
X141479824Y-50742500D01*
G75*
G02*
X141800000Y-51062676I0J-320176D01*
G01*
X141800000Y-52247324D01*
G75*
G02*
X141479824Y-52567500I-320176J0D01*
G01*
G37*
G36*
G01*
X141479824Y-49592500D02*
X139970176Y-49592500D01*
G75*
G02*
X139650000Y-49272324I0J320176D01*
G01*
X139650000Y-48087676D01*
G75*
G02*
X139970176Y-47767500I320176J0D01*
G01*
X141479824Y-47767500D01*
G75*
G02*
X141800000Y-48087676I0J-320176D01*
G01*
X141800000Y-49272324D01*
G75*
G02*
X141479824Y-49592500I-320176J0D01*
G01*
G37*
%TD*%
%TO.C,C12*%
G36*
G01*
X141479824Y-83682500D02*
X139970176Y-83682500D01*
G75*
G02*
X139650000Y-83362324I0J320176D01*
G01*
X139650000Y-82177676D01*
G75*
G02*
X139970176Y-81857500I320176J0D01*
G01*
X141479824Y-81857500D01*
G75*
G02*
X141800000Y-82177676I0J-320176D01*
G01*
X141800000Y-83362324D01*
G75*
G02*
X141479824Y-83682500I-320176J0D01*
G01*
G37*
G36*
G01*
X141479824Y-86657500D02*
X139970176Y-86657500D01*
G75*
G02*
X139650000Y-86337324I0J320176D01*
G01*
X139650000Y-85152676D01*
G75*
G02*
X139970176Y-84832500I320176J0D01*
G01*
X141479824Y-84832500D01*
G75*
G02*
X141800000Y-85152676I0J-320176D01*
G01*
X141800000Y-86337324D01*
G75*
G02*
X141479824Y-86657500I-320176J0D01*
G01*
G37*
%TD*%
D18*
%TO.C,D2*%
X82255000Y-81770000D03*
X80355000Y-81770000D03*
X81305000Y-83770000D03*
%TD*%
D20*
%TO.C,D4*%
X89290000Y-68165000D03*
D21*
X89290000Y-83405000D03*
%TD*%
%TO.C,D5*%
G36*
G01*
X161757500Y-53440176D02*
X161757500Y-54949824D01*
G75*
G02*
X161437324Y-55270000I-320176J0D01*
G01*
X160252676Y-55270000D01*
G75*
G02*
X159932500Y-54949824I0J320176D01*
G01*
X159932500Y-53440176D01*
G75*
G02*
X160252676Y-53120000I320176J0D01*
G01*
X161437324Y-53120000D01*
G75*
G02*
X161757500Y-53440176I0J-320176D01*
G01*
G37*
G36*
G01*
X158782500Y-53440176D02*
X158782500Y-54949824D01*
G75*
G02*
X158462324Y-55270000I-320176J0D01*
G01*
X157277676Y-55270000D01*
G75*
G02*
X156957500Y-54949824I0J320176D01*
G01*
X156957500Y-53440176D01*
G75*
G02*
X157277676Y-53120000I320176J0D01*
G01*
X158462324Y-53120000D01*
G75*
G02*
X158782500Y-53440176I0J-320176D01*
G01*
G37*
%TD*%
%TO.C,D6*%
G36*
G01*
X158147500Y-71855176D02*
X158147500Y-73364824D01*
G75*
G02*
X157827324Y-73685000I-320176J0D01*
G01*
X156642676Y-73685000D01*
G75*
G02*
X156322500Y-73364824I0J320176D01*
G01*
X156322500Y-71855176D01*
G75*
G02*
X156642676Y-71535000I320176J0D01*
G01*
X157827324Y-71535000D01*
G75*
G02*
X158147500Y-71855176I0J-320176D01*
G01*
G37*
G36*
G01*
X161122500Y-71855176D02*
X161122500Y-73364824D01*
G75*
G02*
X160802324Y-73685000I-320176J0D01*
G01*
X159617676Y-73685000D01*
G75*
G02*
X159297500Y-73364824I0J320176D01*
G01*
X159297500Y-71855176D01*
G75*
G02*
X159617676Y-71535000I320176J0D01*
G01*
X160802324Y-71535000D01*
G75*
G02*
X161122500Y-71855176I0J-320176D01*
G01*
G37*
%TD*%
D29*
%TO.C,J2*%
X208670000Y-71975000D03*
X208670000Y-66895000D03*
D30*
X208670000Y-61815000D03*
%TD*%
%TO.C,J3*%
X63255000Y-117060000D03*
D29*
X63255000Y-111980000D03*
X63255000Y-106900000D03*
%TD*%
D26*
%TO.C,J5*%
X168665000Y-75150000D03*
D27*
X168665000Y-77690000D03*
%TD*%
D28*
%TO.C,L6*%
X132470000Y-80865000D03*
X127470000Y-80865000D03*
%TD*%
D31*
%TO.C,Q1*%
X77590000Y-61495000D03*
X77590000Y-59595000D03*
X75590000Y-60545000D03*
%TD*%
%TO.C,Q2*%
X73320000Y-76420000D03*
X75320000Y-75470000D03*
X75320000Y-77370000D03*
%TD*%
D18*
%TO.C,Q4*%
X153425000Y-77690000D03*
X155325000Y-77690000D03*
X154375000Y-75690000D03*
%TD*%
D31*
%TO.C,Q6*%
X163635000Y-76690000D03*
X161635000Y-77640000D03*
X161635000Y-75740000D03*
%TD*%
%TO.C,R2*%
G36*
G01*
X81512500Y-68045176D02*
X81512500Y-69554824D01*
G75*
G02*
X81192324Y-69875000I-320176J0D01*
G01*
X80007676Y-69875000D01*
G75*
G02*
X79687500Y-69554824I0J320176D01*
G01*
X79687500Y-68045176D01*
G75*
G02*
X80007676Y-67725000I320176J0D01*
G01*
X81192324Y-67725000D01*
G75*
G02*
X81512500Y-68045176I0J-320176D01*
G01*
G37*
G36*
G01*
X84487500Y-68045176D02*
X84487500Y-69554824D01*
G75*
G02*
X84167324Y-69875000I-320176J0D01*
G01*
X82982676Y-69875000D01*
G75*
G02*
X82662500Y-69554824I0J320176D01*
G01*
X82662500Y-68045176D01*
G75*
G02*
X82982676Y-67725000I320176J0D01*
G01*
X84167324Y-67725000D01*
G75*
G02*
X84487500Y-68045176I0J-320176D01*
G01*
G37*
%TD*%
%TO.C,R4*%
G36*
G01*
X74565176Y-68722500D02*
X76074824Y-68722500D01*
G75*
G02*
X76395000Y-69042676I0J-320176D01*
G01*
X76395000Y-70227324D01*
G75*
G02*
X76074824Y-70547500I-320176J0D01*
G01*
X74565176Y-70547500D01*
G75*
G02*
X74245000Y-70227324I0J320176D01*
G01*
X74245000Y-69042676D01*
G75*
G02*
X74565176Y-68722500I320176J0D01*
G01*
G37*
G36*
G01*
X74565176Y-71697500D02*
X76074824Y-71697500D01*
G75*
G02*
X76395000Y-72017676I0J-320176D01*
G01*
X76395000Y-73202324D01*
G75*
G02*
X76074824Y-73522500I-320176J0D01*
G01*
X74565176Y-73522500D01*
G75*
G02*
X74245000Y-73202324I0J320176D01*
G01*
X74245000Y-72017676D01*
G75*
G02*
X74565176Y-71697500I320176J0D01*
G01*
G37*
%TD*%
%TO.C,R6*%
G36*
G01*
X150172500Y-73364824D02*
X150172500Y-71855176D01*
G75*
G02*
X150492676Y-71535000I320176J0D01*
G01*
X151677324Y-71535000D01*
G75*
G02*
X151997500Y-71855176I0J-320176D01*
G01*
X151997500Y-73364824D01*
G75*
G02*
X151677324Y-73685000I-320176J0D01*
G01*
X150492676Y-73685000D01*
G75*
G02*
X150172500Y-73364824I0J320176D01*
G01*
G37*
G36*
G01*
X153147500Y-73364824D02*
X153147500Y-71855176D01*
G75*
G02*
X153467676Y-71535000I320176J0D01*
G01*
X154652324Y-71535000D01*
G75*
G02*
X154972500Y-71855176I0J-320176D01*
G01*
X154972500Y-73364824D01*
G75*
G02*
X154652324Y-73685000I-320176J0D01*
G01*
X153467676Y-73685000D01*
G75*
G02*
X153147500Y-73364824I0J320176D01*
G01*
G37*
%TD*%
%TO.C,R8*%
G36*
G01*
X155687500Y-81619824D02*
X155687500Y-80110176D01*
G75*
G02*
X156007676Y-79790000I320176J0D01*
G01*
X157192324Y-79790000D01*
G75*
G02*
X157512500Y-80110176I0J-320176D01*
G01*
X157512500Y-81619824D01*
G75*
G02*
X157192324Y-81940000I-320176J0D01*
G01*
X156007676Y-81940000D01*
G75*
G02*
X155687500Y-81619824I0J320176D01*
G01*
G37*
G36*
G01*
X152712500Y-81619824D02*
X152712500Y-80110176D01*
G75*
G02*
X153032676Y-79790000I320176J0D01*
G01*
X154217324Y-79790000D01*
G75*
G02*
X154537500Y-80110176I0J-320176D01*
G01*
X154537500Y-81619824D01*
G75*
G02*
X154217324Y-81940000I-320176J0D01*
G01*
X153032676Y-81940000D01*
G75*
G02*
X152712500Y-81619824I0J320176D01*
G01*
G37*
%TD*%
D17*
%TO.C,TP9*%
X181365000Y-71975000D03*
%TD*%
D20*
%TO.C,J1*%
X63255000Y-76420000D03*
D28*
X63255000Y-71340000D03*
X63255000Y-66260000D03*
X63255000Y-61180000D03*
%TD*%
D32*
%TO.C,L1*%
X105085000Y-61260000D03*
X100085000Y-61260000D03*
X105085000Y-53560000D03*
X100085000Y-53560000D03*
%TD*%
%TO.C,L2*%
X100165000Y-72610000D03*
X105165000Y-72610000D03*
X100165000Y-80310000D03*
X105165000Y-80310000D03*
%TD*%
D28*
%TO.C,L4*%
X141995000Y-59910000D03*
X136995000Y-59910000D03*
%TD*%
%TO.C,L5*%
X136995000Y-73880000D03*
X141995000Y-73880000D03*
%TD*%
D17*
%TO.C,TP3*%
X116595000Y-51020000D03*
%TD*%
%TO.C,TP5*%
X116595000Y-70705000D03*
%TD*%
%TO.C,TP6*%
X116595000Y-82770000D03*
%TD*%
M02*
