%TF.GenerationSoftware,KiCad,Pcbnew,(5.1.6-0-10_14)*%
%TF.CreationDate,2020-08-16T17:22:38+02:00*%
%TF.ProjectId,netzteil,6e65747a-7465-4696-9c2e-6b696361645f,1.01*%
%TF.SameCoordinates,Original*%
%TF.FileFunction,Legend,Bot*%
%TF.FilePolarity,Positive*%
%FSLAX46Y46*%
G04 Gerber Fmt 4.6, Leading zero omitted, Abs format (unit mm)*
G04 Created by KiCad (PCBNEW (5.1.6-0-10_14)) date 2020-08-16 17:22:38*
%MOMM*%
%LPD*%
G01*
G04 APERTURE LIST*
%ADD10C,0.150000*%
%ADD11C,0.152400*%
G04 APERTURE END LIST*
D10*
X180275357Y-131918571D02*
X180275357Y-130418571D01*
X179418214Y-131918571D01*
X179418214Y-130418571D01*
X178132500Y-131847142D02*
X178275357Y-131918571D01*
X178561071Y-131918571D01*
X178703928Y-131847142D01*
X178775357Y-131704285D01*
X178775357Y-131132857D01*
X178703928Y-130990000D01*
X178561071Y-130918571D01*
X178275357Y-130918571D01*
X178132500Y-130990000D01*
X178061071Y-131132857D01*
X178061071Y-131275714D01*
X178775357Y-131418571D01*
X177632500Y-130918571D02*
X177061071Y-130918571D01*
X177418214Y-130418571D02*
X177418214Y-131704285D01*
X177346785Y-131847142D01*
X177203928Y-131918571D01*
X177061071Y-131918571D01*
X176703928Y-130918571D02*
X175918214Y-130918571D01*
X176703928Y-131918571D01*
X175918214Y-131918571D01*
X175561071Y-130918571D02*
X174989642Y-130918571D01*
X175346785Y-130418571D02*
X175346785Y-131704285D01*
X175275357Y-131847142D01*
X175132500Y-131918571D01*
X174989642Y-131918571D01*
X173918214Y-131847142D02*
X174061071Y-131918571D01*
X174346785Y-131918571D01*
X174489642Y-131847142D01*
X174561071Y-131704285D01*
X174561071Y-131132857D01*
X174489642Y-130990000D01*
X174346785Y-130918571D01*
X174061071Y-130918571D01*
X173918214Y-130990000D01*
X173846785Y-131132857D01*
X173846785Y-131275714D01*
X174561071Y-131418571D01*
X173203928Y-131918571D02*
X173203928Y-130918571D01*
X173203928Y-130418571D02*
X173275357Y-130490000D01*
X173203928Y-130561428D01*
X173132500Y-130490000D01*
X173203928Y-130418571D01*
X173203928Y-130561428D01*
X172275357Y-131918571D02*
X172418214Y-131847142D01*
X172489642Y-131704285D01*
X172489642Y-130418571D01*
X171703928Y-130918571D02*
X171703928Y-132418571D01*
X171703928Y-130990000D02*
X171561071Y-130918571D01*
X171275357Y-130918571D01*
X171132500Y-130990000D01*
X171061071Y-131061428D01*
X170989642Y-131204285D01*
X170989642Y-131632857D01*
X171061071Y-131775714D01*
X171132500Y-131847142D01*
X171275357Y-131918571D01*
X171561071Y-131918571D01*
X171703928Y-131847142D01*
X170132500Y-131918571D02*
X170275357Y-131847142D01*
X170346785Y-131704285D01*
X170346785Y-130418571D01*
X168918214Y-131918571D02*
X168918214Y-131132857D01*
X168989642Y-130990000D01*
X169132500Y-130918571D01*
X169418214Y-130918571D01*
X169561071Y-130990000D01*
X168918214Y-131847142D02*
X169061071Y-131918571D01*
X169418214Y-131918571D01*
X169561071Y-131847142D01*
X169632500Y-131704285D01*
X169632500Y-131561428D01*
X169561071Y-131418571D01*
X169418214Y-131347142D01*
X169061071Y-131347142D01*
X168918214Y-131275714D01*
X168418214Y-130918571D02*
X167846785Y-130918571D01*
X168203928Y-130418571D02*
X168203928Y-131704285D01*
X168132500Y-131847142D01*
X167989642Y-131918571D01*
X167846785Y-131918571D01*
X167346785Y-131918571D02*
X167346785Y-130918571D01*
X167346785Y-130418571D02*
X167418214Y-130490000D01*
X167346785Y-130561428D01*
X167275357Y-130490000D01*
X167346785Y-130418571D01*
X167346785Y-130561428D01*
X166632500Y-130918571D02*
X166632500Y-131918571D01*
X166632500Y-131061428D02*
X166561071Y-130990000D01*
X166418214Y-130918571D01*
X166203928Y-130918571D01*
X166061071Y-130990000D01*
X165989642Y-131132857D01*
X165989642Y-131918571D01*
X164703928Y-131847142D02*
X164846785Y-131918571D01*
X165132500Y-131918571D01*
X165275357Y-131847142D01*
X165346785Y-131704285D01*
X165346785Y-131132857D01*
X165275357Y-130990000D01*
X165132500Y-130918571D01*
X164846785Y-130918571D01*
X164703928Y-130990000D01*
X164632500Y-131132857D01*
X164632500Y-131275714D01*
X165346785Y-131418571D01*
X163918214Y-131847142D02*
X163918214Y-131918571D01*
X163989642Y-132061428D01*
X164061071Y-132132857D01*
X161275357Y-131918571D02*
X161775357Y-131204285D01*
X162132500Y-131918571D02*
X162132500Y-130418571D01*
X161561071Y-130418571D01*
X161418214Y-130490000D01*
X161346785Y-130561428D01*
X161275357Y-130704285D01*
X161275357Y-130918571D01*
X161346785Y-131061428D01*
X161418214Y-131132857D01*
X161561071Y-131204285D01*
X162132500Y-131204285D01*
X160061071Y-131847142D02*
X160203928Y-131918571D01*
X160489642Y-131918571D01*
X160632500Y-131847142D01*
X160703928Y-131704285D01*
X160703928Y-131132857D01*
X160632500Y-130990000D01*
X160489642Y-130918571D01*
X160203928Y-130918571D01*
X160061071Y-130990000D01*
X159989642Y-131132857D01*
X159989642Y-131275714D01*
X160703928Y-131418571D01*
X159489642Y-130918571D02*
X159132500Y-131918571D01*
X158775357Y-130918571D01*
X158203928Y-131775714D02*
X158132500Y-131847142D01*
X158203928Y-131918571D01*
X158275357Y-131847142D01*
X158203928Y-131775714D01*
X158203928Y-131918571D01*
X155561071Y-131918571D02*
X156418214Y-131918571D01*
X155989642Y-131918571D02*
X155989642Y-130418571D01*
X156132500Y-130632857D01*
X156275357Y-130775714D01*
X156418214Y-130847142D01*
X154918214Y-131775714D02*
X154846785Y-131847142D01*
X154918214Y-131918571D01*
X154989642Y-131847142D01*
X154918214Y-131775714D01*
X154918214Y-131918571D01*
X153918214Y-130418571D02*
X153775357Y-130418571D01*
X153632500Y-130490000D01*
X153561071Y-130561428D01*
X153489642Y-130704285D01*
X153418214Y-130990000D01*
X153418214Y-131347142D01*
X153489642Y-131632857D01*
X153561071Y-131775714D01*
X153632500Y-131847142D01*
X153775357Y-131918571D01*
X153918214Y-131918571D01*
X154061071Y-131847142D01*
X154132500Y-131775714D01*
X154203928Y-131632857D01*
X154275357Y-131347142D01*
X154275357Y-130990000D01*
X154203928Y-130704285D01*
X154132500Y-130561428D01*
X154061071Y-130490000D01*
X153918214Y-130418571D01*
X179775357Y-133532857D02*
X180275357Y-133532857D01*
X180275357Y-134318571D02*
X180275357Y-132818571D01*
X179561071Y-132818571D01*
X178989642Y-134318571D02*
X178989642Y-133318571D01*
X178989642Y-133604285D02*
X178918214Y-133461428D01*
X178846785Y-133390000D01*
X178703928Y-133318571D01*
X178561071Y-133318571D01*
X177418214Y-134318571D02*
X177418214Y-133532857D01*
X177489642Y-133390000D01*
X177632500Y-133318571D01*
X177918214Y-133318571D01*
X178061071Y-133390000D01*
X177418214Y-134247142D02*
X177561071Y-134318571D01*
X177918214Y-134318571D01*
X178061071Y-134247142D01*
X178132500Y-134104285D01*
X178132500Y-133961428D01*
X178061071Y-133818571D01*
X177918214Y-133747142D01*
X177561071Y-133747142D01*
X177418214Y-133675714D01*
X176703928Y-133318571D02*
X176703928Y-134318571D01*
X176703928Y-133461428D02*
X176632500Y-133390000D01*
X176489642Y-133318571D01*
X176275357Y-133318571D01*
X176132500Y-133390000D01*
X176061071Y-133532857D01*
X176061071Y-134318571D01*
X175346785Y-134318571D02*
X175346785Y-132818571D01*
X175203928Y-133747142D02*
X174775357Y-134318571D01*
X174775357Y-133318571D02*
X175346785Y-133890000D01*
X172989642Y-134318571D02*
X172989642Y-132818571D01*
X172132500Y-134318571D02*
X172775357Y-133461428D01*
X172132500Y-132818571D02*
X172989642Y-133675714D01*
X171489642Y-134318571D02*
X171489642Y-133318571D01*
X171489642Y-132818571D02*
X171561071Y-132890000D01*
X171489642Y-132961428D01*
X171418214Y-132890000D01*
X171489642Y-132818571D01*
X171489642Y-132961428D01*
X170775357Y-134318571D02*
X170775357Y-133318571D01*
X170775357Y-133604285D02*
X170703928Y-133461428D01*
X170632500Y-133390000D01*
X170489642Y-133318571D01*
X170346785Y-133318571D01*
X169918214Y-134247142D02*
X169775357Y-134318571D01*
X169489642Y-134318571D01*
X169346785Y-134247142D01*
X169275357Y-134104285D01*
X169275357Y-134032857D01*
X169346785Y-133890000D01*
X169489642Y-133818571D01*
X169703928Y-133818571D01*
X169846785Y-133747142D01*
X169918214Y-133604285D01*
X169918214Y-133532857D01*
X169846785Y-133390000D01*
X169703928Y-133318571D01*
X169489642Y-133318571D01*
X169346785Y-133390000D01*
X167989642Y-134247142D02*
X168132500Y-134318571D01*
X168418214Y-134318571D01*
X168561071Y-134247142D01*
X168632500Y-134175714D01*
X168703928Y-134032857D01*
X168703928Y-133604285D01*
X168632500Y-133461428D01*
X168561071Y-133390000D01*
X168418214Y-133318571D01*
X168132500Y-133318571D01*
X167989642Y-133390000D01*
X167346785Y-134318571D02*
X167346785Y-132818571D01*
X166703928Y-134318571D02*
X166703928Y-133532857D01*
X166775357Y-133390000D01*
X166918214Y-133318571D01*
X167132500Y-133318571D01*
X167275357Y-133390000D01*
X167346785Y-133461428D01*
X165989642Y-134318571D02*
X165989642Y-132818571D01*
X165989642Y-133390000D02*
X165846785Y-133318571D01*
X165561071Y-133318571D01*
X165418214Y-133390000D01*
X165346785Y-133461428D01*
X165275357Y-133604285D01*
X165275357Y-134032857D01*
X165346785Y-134175714D01*
X165418214Y-134247142D01*
X165561071Y-134318571D01*
X165846785Y-134318571D01*
X165989642Y-134247142D01*
X163989642Y-134318571D02*
X163989642Y-133532857D01*
X164061071Y-133390000D01*
X164203928Y-133318571D01*
X164489642Y-133318571D01*
X164632500Y-133390000D01*
X163989642Y-134247142D02*
X164132500Y-134318571D01*
X164489642Y-134318571D01*
X164632500Y-134247142D01*
X164703928Y-134104285D01*
X164703928Y-133961428D01*
X164632500Y-133818571D01*
X164489642Y-133747142D01*
X164132500Y-133747142D01*
X163989642Y-133675714D01*
X162632500Y-133318571D02*
X162632500Y-134318571D01*
X163275357Y-133318571D02*
X163275357Y-134104285D01*
X163203928Y-134247142D01*
X163061071Y-134318571D01*
X162846785Y-134318571D01*
X162703928Y-134247142D01*
X162632500Y-134175714D01*
X161918214Y-134318571D02*
X161918214Y-133318571D01*
X161918214Y-133461428D02*
X161846785Y-133390000D01*
X161703928Y-133318571D01*
X161489642Y-133318571D01*
X161346785Y-133390000D01*
X161275357Y-133532857D01*
X161275357Y-134318571D01*
X161275357Y-133532857D02*
X161203928Y-133390000D01*
X161061071Y-133318571D01*
X160846785Y-133318571D01*
X160703928Y-133390000D01*
X160632500Y-133532857D01*
X160632500Y-134318571D01*
X180275357Y-136718571D02*
X180275357Y-135218571D01*
X180275357Y-135932857D02*
X179418214Y-135932857D01*
X179418214Y-136718571D02*
X179418214Y-135218571D01*
X178489642Y-136718571D02*
X178632500Y-136647142D01*
X178703928Y-136575714D01*
X178775357Y-136432857D01*
X178775357Y-136004285D01*
X178703928Y-135861428D01*
X178632500Y-135790000D01*
X178489642Y-135718571D01*
X178275357Y-135718571D01*
X178132500Y-135790000D01*
X178061071Y-135861428D01*
X177989642Y-136004285D01*
X177989642Y-136432857D01*
X178061071Y-136575714D01*
X178132500Y-136647142D01*
X178275357Y-136718571D01*
X178489642Y-136718571D01*
X177346785Y-136718571D02*
X177346785Y-135218571D01*
X176703928Y-136718571D02*
X176703928Y-135932857D01*
X176775357Y-135790000D01*
X176918214Y-135718571D01*
X177132500Y-135718571D01*
X177275357Y-135790000D01*
X177346785Y-135861428D01*
X175418214Y-136647142D02*
X175561071Y-136718571D01*
X175846785Y-136718571D01*
X175989642Y-136647142D01*
X176061071Y-136504285D01*
X176061071Y-135932857D01*
X175989642Y-135790000D01*
X175846785Y-135718571D01*
X175561071Y-135718571D01*
X175418214Y-135790000D01*
X175346785Y-135932857D01*
X175346785Y-136075714D01*
X176061071Y-136218571D01*
X174703928Y-135718571D02*
X174703928Y-136718571D01*
X174703928Y-135861428D02*
X174632500Y-135790000D01*
X174489642Y-135718571D01*
X174275357Y-135718571D01*
X174132500Y-135790000D01*
X174061071Y-135932857D01*
X174061071Y-136718571D01*
X173346785Y-136718571D02*
X173346785Y-135218571D01*
X172703928Y-136718571D02*
X172703928Y-135932857D01*
X172775357Y-135790000D01*
X172918214Y-135718571D01*
X173132500Y-135718571D01*
X173275357Y-135790000D01*
X173346785Y-135861428D01*
X171418214Y-136647142D02*
X171561071Y-136718571D01*
X171846785Y-136718571D01*
X171989642Y-136647142D01*
X172061071Y-136504285D01*
X172061071Y-135932857D01*
X171989642Y-135790000D01*
X171846785Y-135718571D01*
X171561071Y-135718571D01*
X171418214Y-135790000D01*
X171346785Y-135932857D01*
X171346785Y-136075714D01*
X172061071Y-136218571D01*
X170703928Y-136718571D02*
X170703928Y-135718571D01*
X170703928Y-135218571D02*
X170775357Y-135290000D01*
X170703928Y-135361428D01*
X170632500Y-135290000D01*
X170703928Y-135218571D01*
X170703928Y-135361428D01*
X169989642Y-136718571D02*
X169989642Y-135718571D01*
X169989642Y-135861428D02*
X169918214Y-135790000D01*
X169775357Y-135718571D01*
X169561071Y-135718571D01*
X169418214Y-135790000D01*
X169346785Y-135932857D01*
X169346785Y-136718571D01*
X169346785Y-135932857D02*
X169275357Y-135790000D01*
X169132500Y-135718571D01*
X168918214Y-135718571D01*
X168775357Y-135790000D01*
X168703928Y-135932857D01*
X168703928Y-136718571D01*
X167418214Y-136647142D02*
X167561071Y-136718571D01*
X167846785Y-136718571D01*
X167989642Y-136647142D01*
X168061071Y-136504285D01*
X168061071Y-135932857D01*
X167989642Y-135790000D01*
X167846785Y-135718571D01*
X167561071Y-135718571D01*
X167418214Y-135790000D01*
X167346785Y-135932857D01*
X167346785Y-136075714D01*
X168061071Y-136218571D01*
X166703928Y-136718571D02*
X166703928Y-135718571D01*
X166703928Y-136004285D02*
X166632500Y-135861428D01*
X166561071Y-135790000D01*
X166418214Y-135718571D01*
X166275357Y-135718571D01*
X164703928Y-136647142D02*
X164489642Y-136718571D01*
X164132500Y-136718571D01*
X163989642Y-136647142D01*
X163918214Y-136575714D01*
X163846785Y-136432857D01*
X163846785Y-136290000D01*
X163918214Y-136147142D01*
X163989642Y-136075714D01*
X164132500Y-136004285D01*
X164418214Y-135932857D01*
X164561071Y-135861428D01*
X164632500Y-135790000D01*
X164703928Y-135647142D01*
X164703928Y-135504285D01*
X164632500Y-135361428D01*
X164561071Y-135290000D01*
X164418214Y-135218571D01*
X164061071Y-135218571D01*
X163846785Y-135290000D01*
X163418214Y-135718571D02*
X162846785Y-135718571D01*
X163203928Y-135218571D02*
X163203928Y-136504285D01*
X163132500Y-136647142D01*
X162989642Y-136718571D01*
X162846785Y-136718571D01*
X162346785Y-136718571D02*
X162346785Y-135718571D01*
X162346785Y-136004285D02*
X162275357Y-135861428D01*
X162203928Y-135790000D01*
X162061071Y-135718571D01*
X161918214Y-135718571D01*
X160775357Y-136718571D02*
X160775357Y-135932857D01*
X160846785Y-135790000D01*
X160989642Y-135718571D01*
X161275357Y-135718571D01*
X161418214Y-135790000D01*
X160775357Y-136647142D02*
X160918214Y-136718571D01*
X161275357Y-136718571D01*
X161418214Y-136647142D01*
X161489642Y-136504285D01*
X161489642Y-136361428D01*
X161418214Y-136218571D01*
X161275357Y-136147142D01*
X160918214Y-136147142D01*
X160775357Y-136075714D01*
X160061071Y-136718571D02*
X160061071Y-135504285D01*
X159989642Y-135361428D01*
X159918214Y-135290000D01*
X159775357Y-135218571D01*
X159561071Y-135218571D01*
X159418214Y-135290000D01*
X159346785Y-135361428D01*
X159275357Y-135504285D01*
X159275357Y-135718571D01*
X159489642Y-135718571D01*
X159632500Y-135790000D01*
X159703928Y-135932857D01*
X159703928Y-136004285D01*
X159632500Y-136147142D01*
X159489642Y-136218571D01*
X159275357Y-136218571D01*
X159132500Y-136290000D01*
X159061071Y-136432857D01*
X159061071Y-136504285D01*
X159132500Y-136647142D01*
X159275357Y-136718571D01*
X159561071Y-136718571D01*
X159703928Y-136647142D01*
X157846785Y-136647142D02*
X157989642Y-136718571D01*
X158275357Y-136718571D01*
X158418214Y-136647142D01*
X158489642Y-136504285D01*
X158489642Y-135932857D01*
X158418214Y-135790000D01*
X158275357Y-135718571D01*
X157989642Y-135718571D01*
X157846785Y-135790000D01*
X157775357Y-135932857D01*
X157775357Y-136075714D01*
X158489642Y-136218571D01*
X156132500Y-135218571D02*
X155132500Y-135218571D01*
X155775357Y-136718571D01*
X153775357Y-136718571D02*
X154632500Y-136718571D01*
X154203928Y-136718571D02*
X154203928Y-135218571D01*
X154346785Y-135432857D01*
X154489642Y-135575714D01*
X154632500Y-135647142D01*
X153203928Y-136290000D02*
X152489642Y-136290000D01*
X153346785Y-136718571D02*
X152846785Y-135218571D01*
X152346785Y-136718571D01*
X180489642Y-138118571D02*
X179918214Y-138118571D01*
X180275357Y-139118571D02*
X180275357Y-137832857D01*
X180203928Y-137690000D01*
X180061071Y-137618571D01*
X179918214Y-137618571D01*
X179418214Y-139118571D02*
X179418214Y-138118571D01*
X179418214Y-138404285D02*
X179346785Y-138261428D01*
X179275357Y-138190000D01*
X179132500Y-138118571D01*
X178989642Y-138118571D01*
X177846785Y-139118571D02*
X177846785Y-138332857D01*
X177918214Y-138190000D01*
X178061071Y-138118571D01*
X178346785Y-138118571D01*
X178489642Y-138190000D01*
X177846785Y-139047142D02*
X177989642Y-139118571D01*
X178346785Y-139118571D01*
X178489642Y-139047142D01*
X178561071Y-138904285D01*
X178561071Y-138761428D01*
X178489642Y-138618571D01*
X178346785Y-138547142D01*
X177989642Y-138547142D01*
X177846785Y-138475714D01*
X177132500Y-138118571D02*
X177132500Y-139118571D01*
X177132500Y-138261428D02*
X177061071Y-138190000D01*
X176918214Y-138118571D01*
X176703928Y-138118571D01*
X176561071Y-138190000D01*
X176489642Y-138332857D01*
X176489642Y-139118571D01*
X175775357Y-139118571D02*
X175775357Y-137618571D01*
X175632500Y-138547142D02*
X175203928Y-139118571D01*
X175203928Y-138118571D02*
X175775357Y-138690000D01*
X174561071Y-138975714D02*
X174489642Y-139047142D01*
X174561071Y-139118571D01*
X174632500Y-139047142D01*
X174561071Y-138975714D01*
X174561071Y-139118571D01*
X173846785Y-139118571D02*
X173846785Y-137618571D01*
X173703928Y-138547142D02*
X173275357Y-139118571D01*
X173275357Y-138118571D02*
X173846785Y-138690000D01*
X172632500Y-139118571D02*
X172632500Y-138118571D01*
X172632500Y-137618571D02*
X172703928Y-137690000D01*
X172632500Y-137761428D01*
X172561071Y-137690000D01*
X172632500Y-137618571D01*
X172632500Y-137761428D01*
X171918214Y-139118571D02*
X171918214Y-138118571D01*
X171918214Y-138404285D02*
X171846785Y-138261428D01*
X171775357Y-138190000D01*
X171632500Y-138118571D01*
X171489642Y-138118571D01*
X171061071Y-139047142D02*
X170918214Y-139118571D01*
X170632500Y-139118571D01*
X170489642Y-139047142D01*
X170418214Y-138904285D01*
X170418214Y-138832857D01*
X170489642Y-138690000D01*
X170632500Y-138618571D01*
X170846785Y-138618571D01*
X170989642Y-138547142D01*
X171061071Y-138404285D01*
X171061071Y-138332857D01*
X170989642Y-138190000D01*
X170846785Y-138118571D01*
X170632500Y-138118571D01*
X170489642Y-138190000D01*
X169132500Y-139047142D02*
X169275357Y-139118571D01*
X169561071Y-139118571D01*
X169703928Y-139047142D01*
X169775357Y-138975714D01*
X169846785Y-138832857D01*
X169846785Y-138404285D01*
X169775357Y-138261428D01*
X169703928Y-138190000D01*
X169561071Y-138118571D01*
X169275357Y-138118571D01*
X169132500Y-138190000D01*
X168489642Y-139118571D02*
X168489642Y-137618571D01*
X167846785Y-139118571D02*
X167846785Y-138332857D01*
X167918214Y-138190000D01*
X168061071Y-138118571D01*
X168275357Y-138118571D01*
X168418214Y-138190000D01*
X168489642Y-138261428D01*
X167132500Y-139118571D02*
X167132500Y-137618571D01*
X167132500Y-138190000D02*
X166989642Y-138118571D01*
X166703928Y-138118571D01*
X166561071Y-138190000D01*
X166489642Y-138261428D01*
X166418214Y-138404285D01*
X166418214Y-138832857D01*
X166489642Y-138975714D01*
X166561071Y-139047142D01*
X166703928Y-139118571D01*
X166989642Y-139118571D01*
X167132500Y-139047142D01*
X165132500Y-139118571D02*
X165132500Y-138332857D01*
X165203928Y-138190000D01*
X165346785Y-138118571D01*
X165632500Y-138118571D01*
X165775357Y-138190000D01*
X165132500Y-139047142D02*
X165275357Y-139118571D01*
X165632500Y-139118571D01*
X165775357Y-139047142D01*
X165846785Y-138904285D01*
X165846785Y-138761428D01*
X165775357Y-138618571D01*
X165632500Y-138547142D01*
X165275357Y-138547142D01*
X165132500Y-138475714D01*
X163775357Y-138118571D02*
X163775357Y-139118571D01*
X164418214Y-138118571D02*
X164418214Y-138904285D01*
X164346785Y-139047142D01*
X164203928Y-139118571D01*
X163989642Y-139118571D01*
X163846785Y-139047142D01*
X163775357Y-138975714D01*
X163061071Y-139118571D02*
X163061071Y-138118571D01*
X163061071Y-138261428D02*
X162989642Y-138190000D01*
X162846785Y-138118571D01*
X162632500Y-138118571D01*
X162489642Y-138190000D01*
X162418214Y-138332857D01*
X162418214Y-139118571D01*
X162418214Y-138332857D02*
X162346785Y-138190000D01*
X162203928Y-138118571D01*
X161989642Y-138118571D01*
X161846785Y-138190000D01*
X161775357Y-138332857D01*
X161775357Y-139118571D01*
X160132500Y-138404285D02*
X160203928Y-138332857D01*
X160346785Y-138261428D01*
X160489642Y-138261428D01*
X160632500Y-138332857D01*
X160703928Y-138404285D01*
X160775357Y-138547142D01*
X160775357Y-138690000D01*
X160703928Y-138832857D01*
X160632500Y-138904285D01*
X160489642Y-138975714D01*
X160346785Y-138975714D01*
X160203928Y-138904285D01*
X160132500Y-138832857D01*
X160132500Y-138261428D02*
X160132500Y-138832857D01*
X160061071Y-138904285D01*
X159989642Y-138904285D01*
X159846785Y-138832857D01*
X159775357Y-138690000D01*
X159775357Y-138332857D01*
X159918214Y-138118571D01*
X160132500Y-137975714D01*
X160418214Y-137904285D01*
X160703928Y-137975714D01*
X160918214Y-138118571D01*
X161061071Y-138332857D01*
X161132500Y-138618571D01*
X161061071Y-138904285D01*
X160918214Y-139118571D01*
X160703928Y-139261428D01*
X160418214Y-139332857D01*
X160132500Y-139261428D01*
X159918214Y-139118571D01*
X159132500Y-139118571D02*
X159132500Y-138118571D01*
X159132500Y-138261428D02*
X159061071Y-138190000D01*
X158918214Y-138118571D01*
X158703928Y-138118571D01*
X158561071Y-138190000D01*
X158489642Y-138332857D01*
X158489642Y-139118571D01*
X158489642Y-138332857D02*
X158418214Y-138190000D01*
X158275357Y-138118571D01*
X158061071Y-138118571D01*
X157918214Y-138190000D01*
X157846785Y-138332857D01*
X157846785Y-139118571D01*
X156561071Y-139047142D02*
X156703928Y-139118571D01*
X156989642Y-139118571D01*
X157132500Y-139047142D01*
X157203928Y-138904285D01*
X157203928Y-138332857D01*
X157132500Y-138190000D01*
X156989642Y-138118571D01*
X156703928Y-138118571D01*
X156561071Y-138190000D01*
X156489642Y-138332857D01*
X156489642Y-138475714D01*
X157203928Y-138618571D01*
X155846785Y-138975714D02*
X155775357Y-139047142D01*
X155846785Y-139118571D01*
X155918214Y-139047142D01*
X155846785Y-138975714D01*
X155846785Y-139118571D01*
X154489642Y-139047142D02*
X154632500Y-139118571D01*
X154918214Y-139118571D01*
X155061071Y-139047142D01*
X155132500Y-138975714D01*
X155203928Y-138832857D01*
X155203928Y-138404285D01*
X155132500Y-138261428D01*
X155061071Y-138190000D01*
X154918214Y-138118571D01*
X154632500Y-138118571D01*
X154489642Y-138190000D01*
X153632500Y-139118571D02*
X153775357Y-139047142D01*
X153846785Y-138975714D01*
X153918214Y-138832857D01*
X153918214Y-138404285D01*
X153846785Y-138261428D01*
X153775357Y-138190000D01*
X153632500Y-138118571D01*
X153418214Y-138118571D01*
X153275357Y-138190000D01*
X153203928Y-138261428D01*
X153132500Y-138404285D01*
X153132500Y-138832857D01*
X153203928Y-138975714D01*
X153275357Y-139047142D01*
X153418214Y-139118571D01*
X153632500Y-139118571D01*
X152489642Y-139118571D02*
X152489642Y-138118571D01*
X152489642Y-138261428D02*
X152418214Y-138190000D01*
X152275357Y-138118571D01*
X152061071Y-138118571D01*
X151918214Y-138190000D01*
X151846785Y-138332857D01*
X151846785Y-139118571D01*
X151846785Y-138332857D02*
X151775357Y-138190000D01*
X151632500Y-138118571D01*
X151418214Y-138118571D01*
X151275357Y-138190000D01*
X151203928Y-138332857D01*
X151203928Y-139118571D01*
D11*
%TO.C,L1*%
X100466000Y-47897700D02*
G75*
G03*
X100466000Y-47897700I-381000J0D01*
G01*
%TO.C,L2*%
X100546000Y-66947700D02*
G75*
G03*
X100546000Y-66947700I-381000J0D01*
G01*
%TD*%
M02*
