%TF.GenerationSoftware,KiCad,Pcbnew,(5.1.6-0-10_14)*%
%TF.CreationDate,2020-08-16T17:22:38+02:00*%
%TF.ProjectId,netzteil,6e65747a-7465-4696-9c2e-6b696361645f,1.01*%
%TF.SameCoordinates,Original*%
%TF.FileFunction,Soldermask,Bot*%
%TF.FilePolarity,Negative*%
%FSLAX46Y46*%
G04 Gerber Fmt 4.6, Leading zero omitted, Abs format (unit mm)*
G04 Created by KiCad (PCBNEW (5.1.6-0-10_14)) date 2020-08-16 17:22:38*
%MOMM*%
%LPD*%
G01*
G04 APERTURE LIST*
%ADD10O,2.305000X2.400000*%
%ADD11R,2.305000X2.400000*%
%ADD12C,6.400000*%
%ADD13C,2.800000*%
%ADD14R,2.800000X2.800000*%
%ADD15C,1.924000*%
%ADD16C,2.400000*%
%ADD17R,2.400000X2.400000*%
%ADD18R,3.000000X3.000000*%
%ADD19O,3.000000X3.000000*%
%ADD20O,3.600000X3.600000*%
%ADD21R,3.600000X3.600000*%
%ADD22C,3.600000*%
%ADD23C,4.400000*%
%ADD24R,2.100000X2.100000*%
%ADD25O,2.100000X2.100000*%
%ADD26C,3.000000*%
%ADD27C,3.400000*%
%ADD28R,3.400000X3.400000*%
%ADD29C,2.000200*%
G04 APERTURE END LIST*
D10*
%TO.C,Q7*%
X187545000Y-119270000D03*
X190085000Y-119270000D03*
D11*
X192625000Y-119270000D03*
%TD*%
%TO.C,Q8*%
X191565000Y-85730000D03*
D10*
X189025000Y-85730000D03*
X186485000Y-85730000D03*
%TD*%
D12*
%TO.C,HS1*%
X202785000Y-123670000D03*
X177385000Y-123670000D03*
%TD*%
%TO.C,HS2*%
X176265000Y-90030000D03*
X201665000Y-90030000D03*
%TD*%
D13*
%TO.C,C13*%
X190255000Y-136665000D03*
D14*
X190255000Y-131665000D03*
%TD*%
%TO.C,C14*%
X189620000Y-101105000D03*
D13*
X189620000Y-96105000D03*
%TD*%
D15*
%TO.C,RV2*%
X139230000Y-108775000D03*
X142230000Y-108775000D03*
X145230000Y-108775000D03*
%TD*%
D16*
%TO.C,TP4*%
X116595000Y-63085000D03*
%TD*%
%TO.C,C19*%
X110230000Y-120140000D03*
D17*
X115230000Y-120140000D03*
%TD*%
%TO.C,C20*%
X112785000Y-111345000D03*
D16*
X112785000Y-106345000D03*
%TD*%
D13*
%TO.C,C27*%
X75955000Y-127775000D03*
D14*
X75955000Y-122775000D03*
%TD*%
%TO.C,C28*%
X76230000Y-96820000D03*
D13*
X76230000Y-101820000D03*
%TD*%
D18*
%TO.C,D3*%
X89290000Y-48480000D03*
D19*
X89290000Y-63720000D03*
%TD*%
D20*
%TO.C,D11*%
X87230000Y-129760000D03*
D21*
X87230000Y-114520000D03*
%TD*%
%TO.C,D12*%
X87230000Y-94835000D03*
D20*
X87230000Y-110075000D03*
%TD*%
D22*
%TO.C,H1*%
X60080000Y-139920000D03*
%TD*%
%TO.C,H2*%
X60080000Y-51020000D03*
%TD*%
%TO.C,H3*%
X209940000Y-51020000D03*
%TD*%
%TO.C,H4*%
X209940000Y-139920000D03*
%TD*%
D23*
%TO.C,HS3*%
X100230000Y-128640000D03*
X125630000Y-128640000D03*
%TD*%
%TO.C,HS4*%
X100140000Y-101510000D03*
X125540000Y-101510000D03*
%TD*%
D24*
%TO.C,J4*%
X167395000Y-54195000D03*
D25*
X167395000Y-56735000D03*
%TD*%
D26*
%TO.C,L3*%
X127390000Y-52925000D03*
X132390000Y-52925000D03*
%TD*%
D15*
%TO.C,RV1*%
X145170000Y-136745000D03*
X142170000Y-136745000D03*
X139170000Y-136745000D03*
%TD*%
D16*
%TO.C,TP1*%
X74685000Y-49115000D03*
%TD*%
%TO.C,TP2*%
X81670000Y-74515000D03*
%TD*%
%TO.C,TP8*%
X181365000Y-61815000D03*
%TD*%
%TO.C,TP7*%
X181365000Y-54830000D03*
%TD*%
%TO.C,TP10*%
X152790000Y-123410000D03*
%TD*%
%TO.C,TP11*%
X152790000Y-99915000D03*
%TD*%
%TO.C,TP12*%
X208670000Y-80230000D03*
%TD*%
%TO.C,TP13*%
X133740000Y-129125000D03*
%TD*%
D10*
%TO.C,U1*%
X115430000Y-133240000D03*
X112890000Y-133240000D03*
D11*
X110350000Y-133240000D03*
%TD*%
%TO.C,U2*%
X115390000Y-96910000D03*
D10*
X112850000Y-96910000D03*
X110310000Y-96910000D03*
%TD*%
D18*
%TO.C,D4*%
X89290000Y-68165000D03*
D19*
X89290000Y-83405000D03*
%TD*%
D27*
%TO.C,J2*%
X208670000Y-71975000D03*
X208670000Y-66895000D03*
D28*
X208670000Y-61815000D03*
%TD*%
%TO.C,J3*%
X63255000Y-117060000D03*
D27*
X63255000Y-111980000D03*
X63255000Y-106900000D03*
%TD*%
D24*
%TO.C,J5*%
X168665000Y-75150000D03*
D25*
X168665000Y-77690000D03*
%TD*%
D26*
%TO.C,L6*%
X132470000Y-80865000D03*
X127470000Y-80865000D03*
%TD*%
D16*
%TO.C,TP9*%
X181365000Y-71975000D03*
%TD*%
D18*
%TO.C,J1*%
X63255000Y-76420000D03*
D26*
X63255000Y-71340000D03*
X63255000Y-66260000D03*
X63255000Y-61180000D03*
%TD*%
D29*
%TO.C,L1*%
X105085000Y-61260000D03*
X100085000Y-61260000D03*
X105085000Y-53560000D03*
X100085000Y-53560000D03*
%TD*%
%TO.C,L2*%
X100165000Y-72610000D03*
X105165000Y-72610000D03*
X100165000Y-80310000D03*
X105165000Y-80310000D03*
%TD*%
D26*
%TO.C,L4*%
X141995000Y-59910000D03*
X136995000Y-59910000D03*
%TD*%
%TO.C,L5*%
X136995000Y-73880000D03*
X141995000Y-73880000D03*
%TD*%
D16*
%TO.C,TP3*%
X116595000Y-51020000D03*
%TD*%
%TO.C,TP5*%
X116595000Y-70705000D03*
%TD*%
%TO.C,TP6*%
X116595000Y-82770000D03*
%TD*%
M02*
