M48
; DRILL file {KiCad (5.1.6-0-10_14)} date Sunday, August 16, 2020 at 05:22:56 PM
; FORMAT={-:-/ absolute / inch / decimal}
; #@! TF.CreationDate,2020-08-16T17:22:56+02:00
; #@! TF.GenerationSoftware,Kicad,Pcbnew,(5.1.6-0-10_14)
; #@! TF.FileFunction,Plated,1,2,PTH
FMAT,2
INCH
T1C0.0157
T2C0.0300
T3C0.0394
T4C0.0430
T5C0.0433
T6C0.0472
T7C0.0512
T8C0.0598
T9C0.0630
T10C0.0984
%
G90
G05
T1
X2.2904Y-3.6087
X2.2904Y-3.8587
X2.2904Y-4.1087
X2.2904Y-4.4087
X2.2904Y-4.8337
X2.2904Y-5.0837
X2.2904Y-5.3337
X2.5404Y-3.8587
X2.5404Y-4.8337
X2.5404Y-5.0837
X2.5404Y-5.3337
X2.5404Y-5.5837
X2.7904Y-3.6087
X2.7904Y-4.8337
X2.7904Y-5.3337
X2.7904Y-5.5837
X2.8404Y-4.1337
X2.8404Y-4.7087
X3.0404Y-5.3337
X3.0404Y-5.5837
X3.1404Y-4.1337
X3.1404Y-4.7087
X3.2904Y-3.6087
X3.2904Y-3.8587
X3.2904Y-4.1087
X3.2904Y-4.8337
X3.2904Y-5.3337
X3.2904Y-5.5837
X3.5404Y-5.3337
X3.5404Y-5.5837
X3.7904Y-3.6087
X3.7904Y-3.8587
X3.7904Y-4.1087
X3.7904Y-4.6587
X3.7904Y-4.8337
X3.7904Y-5.0837
X3.7904Y-5.3337
X3.7904Y-5.5837
X4.0404Y-4.6587
X4.0404Y-4.8337
X4.0404Y-5.3337
X4.0404Y-5.5837
X4.2904Y-4.5587
X4.5904Y-3.5837
X4.5904Y-4.3087
X4.6654Y-3.6587
X4.6904Y-5.4837
X4.7404Y-4.8087
X4.7404Y-5.0587
X4.7404Y-5.3087
X4.8404Y-3.6587
X4.8904Y-4.5587
X5.0154Y-3.6587
X5.0404Y-4.8087
X5.0404Y-5.3087
X5.1904Y-3.6587
X5.1904Y-3.9587
X5.1904Y-4.2587
X5.2904Y-5.5337
X5.3404Y-3.6587
X5.3404Y-4.8087
X5.3904Y-1.8587
X5.4154Y-3.4337
X5.4654Y-4.2087
X5.4654Y-5.4587
X5.4904Y-4.5587
X5.5404Y-1.8587
X5.5404Y-3.4337
X5.5404Y-5.2837
X5.5654Y-5.4587
X5.5904Y-4.2087
X5.6154Y-2.2087
X5.6154Y-2.5087
X5.6154Y-2.7587
X5.6154Y-3.0587
X5.6154Y-5.0337
X5.6904Y-1.8587
X5.6904Y-3.4337
X5.7154Y-2.6337
X5.7154Y-3.9587
X5.8154Y-5.1587
X5.8654Y-2.3587
X5.8654Y-4.0587
X5.9404Y-2.7837
X5.9654Y-2.2587
X5.9654Y-2.4587
X6.0654Y-1.8587
X6.0654Y-3.3587
X6.0654Y-3.5587
X6.0654Y-3.7837
X6.0654Y-4.0587
X6.0654Y-4.2087
X6.0654Y-4.4087
X6.0654Y-5.1087
X6.0654Y-5.3337
X6.0654Y-5.5837
X6.1404Y-2.3837
X6.1404Y-2.4837
X6.1904Y-2.7837
X6.2904Y-3.3587
X6.2904Y-3.5587
X6.2904Y-3.7837
X6.2904Y-3.9837
X6.2904Y-4.2087
X6.2904Y-4.4087
X6.4904Y-4.2087
X6.5154Y-3.9837
X6.5154Y-4.4087
X6.5654Y-1.8587
X6.5654Y-2.3837
X6.5654Y-3.5587
X6.5654Y-4.0587
X6.5654Y-5.1087
X6.5654Y-5.3337
X6.5654Y-5.5837
X6.7404Y-3.7837
X6.7404Y-3.9837
X6.7404Y-4.2087
X6.7404Y-4.4087
X6.8404Y-2.8587
X6.8404Y-3.0587
X6.8404Y-3.2587
X6.9654Y-3.7837
X6.9654Y-3.9837
X6.9654Y-4.2087
X6.9654Y-4.4087
X7.0654Y-1.8587
X7.0654Y-3.0587
X7.0654Y-3.2587
X7.0654Y-4.0587
X7.0654Y-5.1087
X7.0654Y-5.3337
X7.0654Y-5.5837
X7.1654Y-4.2087
X7.1904Y-4.4087
X7.2404Y-2.1587
X7.3904Y-3.5837
X7.4904Y-3.0337
X7.5154Y-4.3837
X7.5654Y-1.8587
X7.5654Y-2.1337
X7.5654Y-2.3837
X7.5654Y-2.8087
X7.5654Y-4.0587
X7.6404Y-3.0337
X7.6404Y-4.8837
X7.6404Y-5.1087
X7.6654Y-4.3837
X7.8154Y-3.3087
X7.8904Y-4.0837
X7.9154Y-5.5337
X8.0654Y-2.8087
X8.0654Y-3.3087
X8.0654Y-3.8087
X8.0654Y-4.3837
X8.0654Y-4.6337
X8.0654Y-5.1087
X8.0654Y-5.3587
X8.0904Y-1.8587
X8.0904Y-2.1337
X8.3154Y-4.3837
X8.3154Y-4.6337
X8.3154Y-4.8837
X8.3154Y-5.1087
X8.3404Y-5.3587
T2
X5.4791Y-5.3837
X5.5972Y-5.3837
X5.7154Y-5.3837
X5.4815Y-4.2825
X5.5996Y-4.2825
X5.7177Y-4.2825
T3
X5.2654Y-5.0837
X6.0154Y-4.8587
X4.3398Y-4.7299
X4.5366Y-4.7299
X4.5904Y-2.7837
X6.5904Y-2.1337
X6.5904Y-2.2337
X2.9404Y-1.9337
X6.0154Y-3.9337
X4.5904Y-3.2587
X7.1404Y-2.4337
X8.2154Y-3.1587
X3.2154Y-2.9337
X7.1404Y-2.1587
X4.5904Y-2.0087
X6.6404Y-2.9587
X6.6404Y-3.0587
X7.1404Y-2.8337
X4.4404Y-4.1868
X4.4404Y-4.3837
X4.5904Y-2.4837
T4
X3.9435Y-2.8587
X3.9435Y-3.1618
X4.1404Y-2.8587
X4.1404Y-3.1618
X3.9404Y-2.1087
X3.9404Y-2.4118
X4.1372Y-2.1087
X4.1372Y-2.4118
T5
X4.3429Y-3.8154
X4.4429Y-3.8154
X4.5429Y-3.8154
X4.3445Y-5.2457
X4.4445Y-5.2457
X4.5445Y-5.2457
X7.3419Y-3.3752
X7.4419Y-3.3752
X7.5419Y-3.3752
X7.3837Y-4.6957
X7.4837Y-4.6957
X7.5837Y-4.6957
T6
X2.9904Y-4.8337
X2.9904Y-5.0305
X7.4904Y-5.1837
X7.4904Y-5.3805
X3.0012Y-3.8118
X3.0012Y-4.0087
X7.4654Y-3.7837
X7.4654Y-3.9805
T7
X3.5154Y-2.6837
X3.5154Y-3.2837
X5.0185Y-3.1837
X5.2154Y-3.1837
X2.4904Y-2.4087
X2.4904Y-2.6087
X2.4904Y-2.8087
X2.4904Y-3.0087
X5.3935Y-2.9087
X5.5904Y-2.9087
X5.0154Y-2.0837
X5.2122Y-2.0837
X5.3935Y-2.3587
X5.5904Y-2.3587
X3.5154Y-1.9087
X3.5154Y-2.5087
T8
X8.2154Y-2.4337
X8.2154Y-2.6337
X8.2154Y-2.8337
X2.4904Y-4.2087
X2.4904Y-4.4087
X2.4904Y-4.6087
T9
X3.4343Y-4.5087
X3.4343Y-5.1087
X3.4343Y-3.7337
X3.4343Y-4.3337
T10
X6.9396Y-3.5445
X7.9396Y-3.5445
X6.9837Y-4.8689
X3.9425Y-3.9965
X4.9425Y-3.9965
X3.9461Y-5.0646
X4.9461Y-5.0646
X7.9837Y-4.8689
T0
M30
